<svg width="28" height="23" viewBox="0 0 28 23" fill="none" xmlns="http://www.w3.org/2000/svg">
<path d="M1.6875 0.75H3.27734C4.17969 0.75 4.95312 1.30859 5.25391 2.125H24.1602C25.0625 2.125 25.707 2.98438 25.4922 3.84375L23.6875 11.0625C23.3867 12.2656 22.2695 13.125 21.0234 13.125H7.53125L7.83203 14.8008C7.96094 15.4453 8.5625 15.875 9.20703 15.875H22.3125C22.6562 15.875 23 16.2188 23 16.5625C23 16.9492 22.6562 17.25 22.3125 17.25H9.20703C7.875 17.25 6.75781 16.3477 6.5 15.0586L3.96484 2.68359C3.92188 2.38281 3.62109 2.125 3.27734 2.125H1.6875C1.30078 2.125 1 1.82422 1 1.4375C1 1.09375 1.30078 0.75 1.6875 0.75ZM5.55469 3.5L7.23047 11.75H21.0234C21.668 11.75 22.2266 11.3203 22.3555 10.7188L24.1602 3.5H5.55469ZM8.21875 20.3438C8.21875 20.9453 8.64844 21.375 9.25 21.375C9.80859 21.375 10.2812 20.9453 10.2812 20.3438C10.2812 19.7852 9.80859 19.3125 9.25 19.3125C8.64844 19.3125 8.21875 19.7852 8.21875 20.3438ZM11.6562 20.3438C11.6562 21.2461 11.1836 22.0195 10.4531 22.4492C9.67969 22.8789 8.77734 22.8789 8.04688 22.4492C7.27344 22.0195 6.84375 21.2461 6.84375 20.3438C6.84375 19.4844 7.27344 18.7109 8.04688 18.2812C8.77734 17.8516 9.67969 17.8516 10.4531 18.2812C11.1836 18.7109 11.6562 19.4844 11.6562 20.3438ZM20.25 19.3125C19.6484 19.3125 19.2188 19.7852 19.2188 20.3438C19.2188 20.9453 19.6484 21.375 20.25 21.375C20.8086 21.375 21.2812 20.9453 21.2812 20.3438C21.2812 19.7852 20.8086 19.3125 20.25 19.3125ZM20.25 22.75C19.3477 22.75 18.5742 22.3203 18.1445 21.5469C17.7148 20.8164 17.7148 19.9141 18.1445 19.1406C18.5742 18.4102 19.3477 17.9375 20.25 17.9375C21.1094 17.9375 21.8828 18.4102 22.3125 19.1406C22.7422 19.9141 22.7422 20.8164 22.3125 21.5469C21.8828 22.3203 21.1094 22.75 20.25 22.75Z" fill="#AF52DE"/>
<path d="M2.87109 16.2891L3.57422 17.8008L5.08594 18.5039C5.17969 18.5508 5.25 18.6445 5.25 18.75C5.25 18.8672 5.17969 18.9609 5.08594 19.0078L3.57422 19.7109L2.87109 21.2227C2.82422 21.3164 2.73047 21.375 2.625 21.375C2.50781 21.375 2.41406 21.3164 2.36719 21.2227L1.66406 19.7109L0.152344 19.0078C0.0585938 18.9609 0 18.8672 0 18.75C0 18.6445 0.0585938 18.5508 0.152344 18.5039L1.66406 17.8008L2.36719 16.2891C2.41406 16.1953 2.50781 16.125 2.625 16.125C2.73047 16.125 2.82422 16.1953 2.87109 16.2891Z" fill="#AF52DE"/>
<path d="M25.9141 12.8594L26.3828 13.8672L27.3906 14.3359C27.4531 14.3672 27.5 14.4297 27.5 14.5C27.5 14.5781 27.4531 14.6406 27.3906 14.6719L26.3828 15.1406L25.9141 16.1484C25.8828 16.2109 25.8203 16.25 25.75 16.25C25.6719 16.25 25.6094 16.2109 25.5781 16.1484L25.1094 15.1406L24.1016 14.6719C24.0391 14.6406 24 14.5781 24 14.5C24 14.4297 24.0391 14.3672 24.1016 14.3359L25.1094 13.8672L25.5781 12.8594C25.6094 12.7969 25.6719 12.75 25.75 12.75C25.8203 12.75 25.8828 12.7969 25.9141 12.8594Z" fill="#AF52DE"/>
</svg>
