<svg width="28" height="24" viewBox="0 0 28 24" fill="none" xmlns="http://www.w3.org/2000/svg">
<path d="M22.0059 18.2468C22.0059 17.279 21.4741 16.3737 20.6295 15.8741C19.7693 15.3902 18.7214 15.3902 17.8768 15.8741C17.0166 16.3737 16.5005 17.279 16.5005 18.2468C16.5005 19.2302 17.0166 20.1356 17.8768 20.6351C18.7214 21.119 19.7693 21.119 20.6295 20.6351C21.4741 20.1356 22.0059 19.2302 22.0059 18.2468ZM21.3646 20.7132C20.8016 21.2127 20.0508 21.4937 19.2532 21.4937C17.4545 21.4937 16 20.042 16 18.2468C16 16.4673 17.4545 15 19.2532 15C21.0362 15 22.5064 16.4673 22.5064 18.2468C22.5064 19.0585 22.2092 19.7922 21.7243 20.3698L23.9296 22.5707C24.0235 22.6644 24.0235 22.8361 23.9296 22.9298C23.8358 23.0234 23.6637 23.0234 23.5699 22.9298L21.3646 20.7132Z" fill="#AF52DE" stroke="#AF52DE" stroke-width="0.5"/>
<g clip-path="url(#clip0_8_2794)">
<path d="M23.3438 12.1423H20.0625V11.8146C20.0625 10.8708 19.7344 10.0056 19.2488 9.31083L22.4906 6.073C22.74 5.82394 22.74 5.37824 22.4906 5.12918C22.2413 4.88012 21.795 4.88012 21.5456 5.12918L18.3038 8.36701C17.6081 7.86888 16.7025 7.55427 15.7969 7.55427H11.2031C10.2581 7.55427 9.3525 7.88199 8.65688 8.36701L5.415 5.14229C5.16563 4.89323 4.71938 4.89323 4.47 5.14229C4.22063 5.39135 4.22063 5.83705 4.47 6.08611L7.75125 9.32394C7.21313 10.0187 6.9375 10.9232 6.9375 11.8277V12.1554H3.65625C3.28875 12.1554 3 12.4831 3 12.8108C3 13.1779 3.28875 13.4663 3.65625 13.4663H6.9375V14.1217C6.9375 15.3932 7.26563 16.5337 7.84313 17.5168L4.48313 20.8726C4.23375 21.1217 4.23375 21.5674 4.48313 21.8164C4.7325 22.0655 5.17875 22.0655 5.42813 21.8164L8.67 18.5786C9.86438 19.8895 11.5838 20.6629 13.5131 20.6629C13.9856 20.6629 14.445 20.6105 14.8781 20.5187C14.7206 20.1123 14.6288 19.6797 14.5894 19.2209C14.445 19.2472 14.3138 19.2865 14.1694 19.3127V11.4869C14.1694 11.1591 13.8413 10.8314 13.5131 10.8314C13.1456 10.8314 12.8569 11.1591 12.8569 11.4869V19.3127C10.2319 19.0243 8.26313 16.809 8.26313 14.1086V11.8146C8.26313 10.2153 9.57563 8.86514 11.2163 8.86514H15.81C17.4113 8.86514 18.7631 10.2153 18.7631 11.8146V14.1086C18.7631 14.1086 18.75 14.2134 18.75 14.2659C18.8813 14.2659 19.0125 14.2266 19.1438 14.2266C19.4588 14.2266 19.7606 14.2528 20.0625 14.3183C20.0625 14.2397 20.0756 14.1741 20.0756 14.1086V13.4531H23.3569C23.685 13.4531 24.0131 13.1648 24.0131 12.7977C24.0131 12.47 23.685 12.1423 23.3569 12.1423H23.3438Z" fill="#AF52DE"/>
<path d="M10.7176 6.24344H16.2563C16.9126 6.24344 17.4507 5.74532 17.4507 5.08989V4.93258C17.4507 2.75655 15.6919 1 13.5132 1C11.3344 1 9.57568 2.75655 9.57568 4.93258V5.08989C9.57568 5.74532 10.0744 6.24344 10.7307 6.24344H10.7176ZM13.5001 2.31086C14.9307 2.31086 16.1251 3.50374 16.1251 4.93258H10.8751C10.8751 3.50374 12.0301 2.31086 13.5001 2.31086Z" fill="#AF52DE"/>
</g>
<defs>
<clipPath id="clip0_8_2794">
<rect width="21" height="21" fill="white" transform="translate(3 1)"/>
</clipPath>
</defs>
</svg>
