<svg width="28" height="23" viewBox="0 0 28 23" fill="none" xmlns="http://www.w3.org/2000/svg">
<path d="M20.6602 8.3125C20.918 8.74219 20.918 9.25781 20.6602 9.6875C20.4453 10.1172 19.9727 10.375 19.5 10.375H11.25C10.7344 10.375 10.2617 10.1172 10.0469 9.6875C9.78906 9.25781 9.78906 8.74219 10.0469 8.3125L14.1719 1.4375C14.4297 1.00781 14.8594 0.75 15.375 0.75C15.8477 0.75 16.2773 1.00781 16.5352 1.4375L20.6602 8.3125ZM15.375 2.125L11.25 9H19.5L15.375 2.125ZM23.2812 13.8125H17.0938C16.8789 13.8125 16.75 13.9844 16.75 14.1562V20.3438C16.75 20.5586 16.8789 20.6875 17.0938 20.6875H23.2812C23.4531 20.6875 23.625 20.5586 23.625 20.3438V14.1562C23.625 13.9844 23.4531 13.8125 23.2812 13.8125ZM17.0938 12.4375H23.2812C24.2266 12.4375 25 13.2109 25 14.1562V20.3438C25 21.332 24.2266 22.0625 23.2812 22.0625H17.0938C16.1055 22.0625 15.375 21.332 15.375 20.3438V14.1562C15.375 13.2109 16.1055 12.4375 17.0938 12.4375ZM12.625 17.25C12.625 15.7891 11.8086 14.457 10.5625 13.6836C9.27344 12.9531 7.68359 12.9531 6.4375 13.6836C5.14844 14.457 4.375 15.7891 4.375 17.25C4.375 18.7539 5.14844 20.0859 6.4375 20.8594C7.68359 21.5898 9.27344 21.5898 10.5625 20.8594C11.8086 20.0859 12.625 18.7539 12.625 17.25ZM3 17.25C3 15.3164 4.03125 13.5117 5.75 12.5234C7.42578 11.5352 9.53125 11.5352 11.25 12.5234C12.9258 13.5117 14 15.3164 14 17.25C14 19.2266 12.9258 21.0312 11.25 22.0195C9.53125 23.0078 7.42578 23.0078 5.75 22.0195C4.03125 21.0312 3 19.2266 3 17.25Z" fill="#AF52DE"/>
</svg>
