<svg width="28" height="23" viewBox="0 0 28 23" fill="none" xmlns="http://www.w3.org/2000/svg">
<path d="M14.8047 0.921875L26.4922 11.2344C26.793 11.4922 26.793 11.9219 26.5781 12.2227C26.3203 12.5234 25.8906 12.5234 25.5898 12.2656L24 10.8477V19.3125C24 21.2461 22.4531 22.75 20.5625 22.75H8.1875C6.25391 22.75 4.75 21.2461 4.75 19.3125V10.8477L3.11719 12.2656C2.85938 12.5234 2.38672 12.5234 2.17188 12.2227C1.91406 11.9219 1.91406 11.4922 2.21484 11.2344L13.9023 0.921875C14.1602 0.707031 14.5469 0.707031 14.8047 0.921875ZM6.125 19.3125C6.125 20.4727 7.02734 21.375 8.1875 21.375H10.9375V14.5C10.9375 13.7695 11.5391 13.125 12.3125 13.125H16.4375C17.168 13.125 17.8125 13.7695 17.8125 14.5V21.375H20.5625C21.6797 21.375 22.625 20.4727 22.625 19.3125V9.64453L14.375 2.38281L6.125 9.64453V19.3125ZM12.3125 21.375H16.4375V14.5H12.3125V21.375Z" fill="#AF52DE"/>
</svg>
