<svg width="136" height="125" viewBox="0 0 136 125" fill="none" xmlns="http://www.w3.org/2000/svg">
<path d="M128 110.5C128 111.455 127.786 112.268 127.357 112.938C126.932 113.608 126.352 114.12 125.617 114.474C124.885 114.825 124.061 115 123.147 115C122.226 115 121.4 114.823 120.668 114.47C119.935 114.116 119.357 113.604 118.932 112.934C118.507 112.264 118.294 111.452 118.294 110.5C118.294 109.545 118.507 108.732 118.932 108.062C119.357 107.392 119.935 106.881 120.668 106.53C121.4 106.177 122.226 106 123.147 106C124.061 106 124.885 106.177 125.617 106.53C126.352 106.881 126.932 107.392 127.357 108.062C127.786 108.732 128 109.545 128 110.5ZM125.779 110.5C125.779 109.881 125.669 109.359 125.45 108.934C125.234 108.51 124.928 108.187 124.534 107.968C124.139 107.748 123.677 107.638 123.147 107.638C122.617 107.638 122.155 107.748 121.761 107.968C121.366 108.187 121.059 108.51 120.84 108.934C120.624 109.359 120.516 109.881 120.516 110.5C120.516 111.119 120.624 111.641 120.84 112.066C121.059 112.49 121.366 112.813 121.761 113.032C122.155 113.252 122.617 113.362 123.147 113.362C123.677 113.362 124.139 113.252 124.534 113.032C124.928 112.813 125.234 112.49 125.45 112.066C125.669 111.641 125.779 111.119 125.779 110.5Z" fill="#AF52DE"/>
<path d="M117.215 109.187H115.164C115.127 108.944 115.051 108.729 114.935 108.541C114.82 108.35 114.671 108.187 114.49 108.053C114.309 107.919 114.1 107.817 113.863 107.745C113.629 107.674 113.375 107.638 113.1 107.638C112.604 107.638 112.172 107.751 111.803 107.976C111.435 108.199 111.15 108.524 110.947 108.952C110.744 109.376 110.642 109.893 110.642 110.5C110.642 111.125 110.744 111.649 110.947 112.074C111.153 112.499 111.44 112.82 111.808 113.037C112.176 113.253 112.602 113.362 113.086 113.362C113.358 113.362 113.609 113.329 113.84 113.263C114.074 113.198 114.281 113.102 114.462 112.977C114.643 112.848 114.793 112.693 114.912 112.51C115.033 112.328 115.118 112.12 115.164 111.886L117.215 111.894C117.162 112.297 117.029 112.684 116.817 113.058C116.608 113.429 116.325 113.761 115.97 114.055C115.617 114.346 115.196 114.577 114.706 114.748C114.219 114.916 113.668 115 113.053 115C112.198 115 111.434 114.823 110.759 114.47C110.088 114.116 109.558 113.604 109.168 112.934C108.781 112.264 108.587 111.452 108.587 110.5C108.587 109.545 108.784 108.732 109.177 108.062C109.57 107.392 110.104 106.881 110.778 106.53C111.452 106.177 112.211 106 113.053 106C113.609 106 114.124 106.071 114.598 106.214C115.076 106.356 115.498 106.565 115.867 106.838C116.235 107.109 116.534 107.442 116.765 107.835C116.999 108.229 117.149 108.679 117.215 109.187Z" fill="#AF52DE"/>
<path d="M100.913 115H98.8823L101.977 106H104.419L107.51 115H105.479L103.233 108.057H103.163L100.913 115ZM100.786 111.462H105.584V112.948H100.786V111.462Z" fill="#AF52DE"/>
<path d="M97.8029 106V115H95.9193L91.4319 109.335H91.3563V115H89.1755V106H91.0894L95.5416 111.66H95.6322V106H97.8029Z" fill="#AF52DE"/>
<path d="M88.0982 110.5C88.0982 111.455 87.8839 112.268 87.4555 112.938C87.0304 113.608 86.4502 114.12 85.7147 114.474C84.9826 114.825 84.1595 115 83.2452 115C82.3243 115 81.4977 114.823 80.7657 114.47C80.0336 114.116 79.455 113.604 79.0299 112.934C78.6049 112.264 78.3923 111.452 78.3923 110.5C78.3923 109.545 78.6049 108.732 79.0299 108.062C79.455 107.392 80.0336 106.881 80.7657 106.53C81.4977 106.177 82.3243 106 83.2452 106C84.1595 106 84.9826 106.177 85.7147 106.53C86.4502 106.881 87.0304 107.392 87.4555 108.062C87.8839 108.732 88.0982 109.545 88.0982 110.5ZM85.8766 110.5C85.8766 109.881 85.767 109.359 85.5477 108.934C85.3318 108.51 85.0265 108.187 84.6318 107.968C84.2371 107.748 83.7749 107.638 83.2452 107.638C82.7156 107.638 82.2534 107.748 81.8587 107.968C81.464 108.187 81.157 108.51 80.9377 108.934C80.7218 109.359 80.6138 109.881 80.6138 110.5C80.6138 111.119 80.7218 111.641 80.9377 112.066C81.157 112.49 81.464 112.813 81.8587 113.032C82.2534 113.252 82.7156 113.362 83.2452 113.362C83.7749 113.362 84.2371 113.252 84.6318 113.032C85.0265 112.813 85.3318 112.49 85.5477 112.066C85.767 111.641 85.8766 111.119 85.8766 110.5Z" fill="#AF52DE"/>
<path d="M66.5288 106H69.1229L71.8626 112.047H71.9792L74.719 106H77.3131V115H75.2728V109.142H75.1902L72.6156 114.956H71.2263L68.6517 109.12H68.5691V115H66.5288V106Z" fill="#AF52DE"/>
<path d="M55.6187 115H53.5876L56.6823 106H59.1248L62.215 115H60.184L57.9386 108.057H57.8685L55.6187 115ZM55.4917 111.462H60.2891V112.948H55.4917V111.462Z" fill="#AF52DE"/>
<path d="M52.51 106V115H50.6263L46.1389 109.335H46.0633V115H43.8826V106H45.7964L50.2486 111.66H50.3393V106H52.51Z" fill="#AF52DE"/>
<path d="M36.3337 115V106H42.7856V107.569H38.3581V109.713H42.4536V111.282H38.3581V113.431H42.8043V115H36.3337Z" fill="#AF52DE"/>
<path d="M27.7051 115V106H34.1569V107.569H29.7295V109.713H33.825V111.282H29.7295V113.431H34.1756V115H27.7051Z" fill="#AF52DE"/>
<path d="M18 107.569V106H26.6274V107.569H23.4114V115H21.216V107.569H18Z" fill="#AF52DE"/>
<g style="mix-blend-mode:multiply">
<path d="M119.67 95.8257C124.823 95.8257 129 91.9517 129 87.1729C129 82.394 124.823 78.52 119.67 78.52C114.517 78.52 110.339 82.394 110.339 87.1729C110.339 91.9517 114.517 95.8257 119.67 95.8257Z" fill="#AF52DE"/>
</g>
<g style="mix-blend-mode:multiply">
<path d="M63.5119 31.4842L64.0543 39.5215H64.5992C66.7789 33.4574 71.0019 30.4276 77.2659 30.4276C83.5299 30.4276 87.3443 33.3333 89.1152 39.5215H89.6601C91.9735 33.4574 96.6053 30.4276 103.278 30.4276C112.541 30.4276 116.898 36.3654 116.898 49.1207V93.584H106.956V48.9944C106.956 42.5535 104.776 39.5215 100.011 39.5215C94.1532 39.5215 90.6137 44.3222 90.6137 52.0264V93.584H81.6227V48.9944C81.6227 42.6776 79.3093 39.5215 74.6776 39.5215C68.8198 39.5215 65.2779 44.1959 65.2779 52.0264V93.584H55.3358V31.4842H63.5119Z" fill="#EE3CAF"/>
<path d="M104.236 96.113V48.9967C104.236 42.0482 101.594 42.0482 100.016 42.0482C93.8237 42.0482 93.3432 49.6858 93.3432 52.0264V96.1107H78.9056V48.9944C78.9056 42.0459 76.0547 42.0459 74.685 42.0459C68.6613 42.0459 68.0099 49.0242 68.0099 52.0241V96.1085H52.6187V28.9575H66.0754L66.2761 31.923C69.0675 29.2722 72.7754 27.9009 77.2734 27.9009C82.8958 27.9009 87.0371 29.9613 89.6403 34.0362C92.7191 30.0026 97.3533 27.9009 103.288 27.9009C108.861 27.9009 113.079 29.8097 115.828 33.5745C118.389 37.082 119.633 42.1676 119.633 49.123V96.113H104.236ZM109.686 91.0596H114.179V49.123C114.179 34.8769 108.67 32.9566 103.283 32.9566C97.8957 32.9566 94.4727 35.1617 92.5061 39.6938C94.5272 37.9411 97.1205 36.9971 100.016 36.9971C104.16 36.9971 106.391 38.8645 107.533 40.4288C108.982 42.4157 109.686 45.2181 109.686 48.9967V91.0596ZM84.3522 91.0596H87.8917V52.0287C87.8917 48.0434 88.7759 44.6117 90.4577 42.0505H87.0223L86.4848 40.1715C85.0383 35.1135 82.2816 32.9566 77.2684 32.9566C72.5624 32.9566 69.4638 34.9711 67.5987 39.278C69.5034 37.7964 71.8961 36.9971 74.6825 36.9971C78.2938 36.9971 84.3522 38.5567 84.3522 48.999V91.0619V91.0596ZM62.5558 91.0596V52.0287C62.5558 47.9653 63.4475 44.5749 65.0798 42.0505H61.4933L60.9508 34.0132H58.0603V91.0596H62.5558Z" fill="#EE3CAF"/>
</g>
<g style="mix-blend-mode:multiply">
<path d="M19.748 73.3172V39.9691H2.72455V31.2542H20.2929L20.3871 9.52907H30.3713V31.2542H64.1582V39.9691H30.3713V72.0538C30.3713 80.895 34.4581 85.3168 42.6318 85.3168C50.8054 85.3168 55.026 80.8973 55.026 72.0538V67.5057H65.3768V73.3149C65.3768 86.8305 57.2032 94.4107 42.4931 94.4107C27.783 94.4107 19.748 86.8305 19.748 73.3149V73.3172Z" fill="#AF52DE"/>
<path d="M42.4955 96.9396C34.4928 96.9396 28.1793 94.8471 23.7308 90.7193C19.2824 86.5916 17.026 80.7365 17.026 73.3171V42.4958H2.72455C1.21862 42.4958 0 41.3657 0 39.9691V31.2542C0 29.8576 1.21862 28.7275 2.72455 28.7275H17.5808L17.665 9.51753C17.6699 8.12554 18.8886 7 20.3895 7H30.3738C31.8797 7 33.0983 8.13013 33.0983 9.52672V28.7252H64.1607C65.6666 28.7252 66.8852 29.8553 66.8852 31.2519V39.9668C66.8852 41.3634 65.6666 42.4935 64.1607 42.4935H33.0983V72.0515C33.0983 81.5657 38.1932 82.7877 42.6343 82.7877C47.4171 82.7877 52.3039 81.5129 52.3039 72.0515V67.5034C52.3039 66.1068 53.5225 64.9767 55.0285 64.9767H65.3793C66.8852 64.9767 68.1038 66.1068 68.1038 67.5034V73.3125C68.1038 80.7411 65.84 86.5985 61.3767 90.7193C56.9109 94.8425 50.5577 96.9351 42.4955 96.9351V96.9396ZM5.4491 37.4423H19.748C21.254 37.4423 22.4726 38.5725 22.4726 39.9691V73.3171C22.4726 85.4638 29.3954 91.8862 42.4931 91.8862C55.5907 91.8862 62.6523 85.4661 62.6523 73.3171V70.0347H57.7505V72.0561C57.7505 77.0865 56.4898 80.9892 54.0055 83.656C51.4147 86.4354 47.588 87.8458 42.6318 87.8458C37.6756 87.8458 33.9429 86.4331 31.367 83.6491C28.8976 80.9777 27.6468 77.0797 27.6468 72.0584V39.9737C27.6468 38.5771 28.8654 37.4469 30.3713 37.4469H61.4336V33.7855H30.3713C28.8654 33.7855 27.6468 32.6554 27.6468 31.2588V12.0557H23.1017L23.0175 31.2657C23.0125 32.6577 21.7939 33.7832 20.2929 33.7832H5.4491V37.4446V37.4423Z" fill="#AF52DE"/>
</g>
</svg>
