<svg width="28" height="23" viewBox="0 0 28 23" fill="none" xmlns="http://www.w3.org/2000/svg">
<path d="M12.5001 17.1899C12.1101 17.1899 11.8101 17.5299 11.8101 17.8799C11.8101 18.2699 12.1101 18.5699 12.5001 18.5699H15.2501C15.5901 18.5699 15.9401 18.2699 15.9401 17.8799C15.9401 17.5399 15.6001 17.1899 15.2501 17.1899H12.5001Z" fill="#AF52DE"/>
<path d="M19.38 16.58V19.25C19.38 20.02 18.74 20.63 18 20.63H9.75C8.98 20.63 8.37 20.03 8.37 19.25V2.75C8.37 2.02 8.97 1.37 9.75 1.37H18C18.73 1.37 19.38 2.01 19.38 2.75V5.58H20.76V2.75C20.76 1.25 19.51 0 18.01 0H9.75C8.2 0 7 1.25 7 2.75V19.25C7 20.8 8.2 22 9.75 22H18C19.5 22 20.75 20.8 20.75 19.25V16.58H19.37H19.38Z" fill="#AF52DE"/>
<path d="M20.8281 7.71875L21.7656 9.73438L23.7812 10.6719C23.9062 10.7344 24 10.8594 24 11C24 11.1562 23.9062 11.2812 23.7812 11.3438L21.7656 12.2812L20.8281 14.2969C20.7656 14.4219 20.6406 14.5 20.5 14.5C20.3438 14.5 20.2188 14.4219 20.1562 14.2969L19.2188 12.2812L17.2031 11.3438C17.0781 11.2812 17 11.1562 17 11C17 10.8594 17.0781 10.7344 17.2031 10.6719L19.2188 9.73438L20.1562 7.71875C20.2188 7.59375 20.3438 7.5 20.5 7.5C20.6406 7.5 20.7656 7.59375 20.8281 7.71875Z" fill="#AF52DE"/>
<path d="M24.9141 3.85938L25.3828 4.86719L26.3906 5.33594C26.4531 5.36719 26.5 5.42969 26.5 5.5C26.5 5.57812 26.4531 5.64062 26.3906 5.67188L25.3828 6.14062L24.9141 7.14844C24.8828 7.21094 24.8203 7.25 24.75 7.25C24.6719 7.25 24.6094 7.21094 24.5781 7.14844L24.1094 6.14062L23.1016 5.67188C23.0391 5.64062 23 5.57812 23 5.5C23 5.42969 23.0391 5.36719 23.1016 5.33594L24.1094 4.86719L24.5781 3.85938C24.6094 3.79688 24.6719 3.75 24.75 3.75C24.8203 3.75 24.8828 3.79688 24.9141 3.85938Z" fill="#AF52DE"/>
</svg>
